<svg xmlns="http://www.w3.org/2000/svg" width="171.5" height="40.7" viewBox="0 0 171.5 40.7"><g id="Layer_2" data-name="Layer 2"><g id="Layer_1-2" data-name="Layer 1"><g><path d="M9.5,40.7H0V8.9H9.4V12c2.5-2.6,6.5-4,11.3-4,8.6,0,14.5,5,14.5,12.3S29.1,32.9,20.4,32.9c-4.4,0-8.3-1.3-10.9-3.7ZM.9,39.8H8.6V26.9l.8.9c2.4,2.6,6.4,4.2,11,4.2,8.3,0,13.8-4.7,13.8-11.7S28.8,9,20.7,9c-5,0-9.1,1.6-11.4,4.5l-.8,1.1V9.8H.9ZM17.4,27.4c-5.4,0-9-2.8-9-6.9v-.4c0-3.9,3.8-6.6,9.2-6.6s8.6,2.6,8.6,6.8S22.8,27.4,17.4,27.4Zm.2-13c-5,0-8.3,2.3-8.3,5.7v.4c0,3.6,3.2,6,8.1,6s7.9-2.3,7.9-6.2S22.4,14.4,17.6,14.4Z"></path><path d="M53.7,32.7c-8.1,0-12.2-3.3-12.2-9.9V15.2H34.9V8.9h6.6V3.8L51,.5V8.9H61v6.3H51v6c0,2.8,1.5,4.1,4.9,4.1a16.3,16.3,0,0,0,4.5-.6H61v6.9h-.3A17.9,17.9,0,0,1,53.7,32.7ZM35.8,14.3h6.6v8.5c0,6,3.7,9,11.3,9a18.1,18.1,0,0,0,6.4-.9V25.8a23,23,0,0,1-4.2.4c-3.9,0-5.9-1.6-5.9-5V14.3H60.1V9.8H50v-8L42.4,4.5V9.8H35.8Z"></path><path d="M102.6,22.6c0,4.6-3.1,9-11.9,9H66.3V0H90.5c7.9,0,11.3,3.5,11.3,8s-2,6.1-6.2,7C100.3,15.7,102.6,18.5,102.6,22.6ZM75.3,5.9v6.9H88c3.7,0,4.5-1.9,4.5-3.7S91.6,5.9,88,5.9Zm18,16c0-2.2-1.5-3.7-4.9-3.7H75.3v7.5H88.4C91.9,25.7,93.3,24,93.3,21.9Z"></path><path d="M108.6,31.6V0h9V31.6Z"></path><path d="M125.8,0h13.5l8.1,19.1a21.9,21.9,0,0,1,1.1,3.4h.1a17,17,0,0,1,1.1-3.5l8-19h13.8V31.6h-8.2V11.5a33.5,33.5,0,0,1,.4-5.4h-.2a39,39,0,0,1-1.9,5.1l-9.1,20.4h-8.4l-8.8-20.3a38.3,38.3,0,0,1-1.7-5.2h-.3a23.7,23.7,0,0,1,.4,5.4V31.6h-7.9Z"></path></g></g></g></svg>