<svg xmlns="http://www.w3.org/2000/svg" width="248.3" height="58.9" viewBox="0 0 248.3 58.9"><g id="Layer_2" data-name="Layer 2"><g id="Layer_1-2" data-name="Layer 1"><g><path d="M29.8,11.8c-7.1,0-12.9,2.1-16.5,6V13H0V58.9H13.4v-17c3.7,3.6,9.5,5.6,16,5.6,12.5,0,21.2-7.4,21.2-18.1S42.2,11.8,29.8,11.8Zm-.4,34.7c-6.8,0-12.6-2.2-16.1-6.1l-.9-1V57.9H1V14H12.3v6.6l.8-1.1c3.4-4.3,9.4-6.7,16.7-6.7,11.8,0,19.8,6.7,19.8,16.6S41.5,46.5,29.4,46.5Z" style="fill: #f5f4f0"></path><path d="M25.3,19.7c-7.9,0-13.1,3.8-13.1,9.4v.6c0,5.9,5.2,9.8,12.9,9.8s12.5-3.9,12.5-10.1S32.9,19.7,25.3,19.7Zm-.2,18.8c-7.2,0-11.9-3.5-11.9-8.8v-.6c0-5,4.8-8.4,12.1-8.4s11.3,3.4,11.3,8.7S32.3,38.5,25.1,38.5Z" style="fill: #f5f4f0"></path><path d="M73.5.9,60,5.6V13H50.5v8.8H60V33.1c0,9.3,6,14.1,17.6,14.1a28.6,28.6,0,0,0,10.1-1.5l.3-.2V35.9h-.6a26,26,0,0,1-6.5.8c-5.1,0-7.4-1.9-7.4-6.1V21.8H88V13H73.5ZM87,14v6.8H72.5v9.9c0,4.8,2.7,7.1,8.4,7.1a24.3,24.3,0,0,0,6.1-.7v7.8a28.2,28.2,0,0,1-9.4,1.3C66.5,46.2,61,41.9,61,33.1V20.8H51.5V14H61V6.4L72.5,2.3V14Z" style="fill: #f5f4f0"></path><path d="M138.2,21.7c6.2-1.3,9.1-5.5,9.1-10.1,0-6.5-4.9-11.6-16.4-11.6h-35V45.8h35.2c12.8,0,17.3-6.3,17.3-13S145.1,22.8,138.2,21.7ZM108.9,8.5h18.4c5.2,0,6.5,2.5,6.5,4.7s-1.1,5.3-6.5,5.3H108.9Zm19,28.8h-19V26.4h19c4.9,0,7.1,2.2,7.1,5.3S132.9,37.3,127.9,37.3Z" style="fill: #f5f4f0"></path><rect x="157.1" width="13" height="45.78" style="fill: #f5f4f0"></rect><path d="M228.3,0,216.6,27.6a25.8,25.8,0,0,0-1.6,5h-.1a30.8,30.8,0,0,0-1.6-4.9L201.5,0H182V45.8h11.4V16.7a39.9,39.9,0,0,0-.5-7.9h.4a68.9,68.9,0,0,0,2.4,7.5l12.8,29.5h12.2l13.2-29.6a59.8,59.8,0,0,0,2.7-7.4h.3a53.5,53.5,0,0,0-.6,7.9V45.8h12V0Z" style="fill: #f5f4f0"></path></g></g></g></svg>